<svg width="97.98" height="50" xmlns="http://www.w3.org/2000/svg" viewBox="0 0 97.98 50">
    <path d="M56.187 30.553a.965.965 0 01.007-.297.945.945 0 01.455-.145c.525-.042 1.124.27 1.391.702.442-.316.69-.71.671-.958-.04-.496-.504-.678-1.121-.63-1.235.098-3.05 1.131-2.947 2.434.088 1.131 2.35 2.434 2.43 3.458.07.883-.603 1.42-1.298 1.475-.694.055-1.41-.356-1.485-1.317-.046-.574.23-1.22.882-1.615a.839.839 0 00-.723-.301c-.756.06-1.178.686-1.258 1.428-.378.734-.954 1.618-1.456 1.782.05-.737.634-3.592 1.104-6.125l.91-.072c.309-.024.463-.24.45-.41-.008-.108-.093-.196-.263-.182l-.988.079c.173-.967.306-1.85.395-2.498a.404.404 0 00-.272-.087c-.216.017-.287.303-.38.498-.186.39-.453.957-.988 1.467-.549.527-1.163.732-2.003.924a.382.382 0 00-.114.32c.01.125.08.229.172.221l1.104-.103c-.454 2.532-1.056 5.34-1.017 5.837.053.682.63 1.088 1.385 1.028.838-.066 1.579-.882 2.046-1.698.321 1.1 1.358 1.507 2.453 1.421 1.528-.121 3.152-1.2 3.036-2.69-.125-1.58-2.473-2.597-2.578-3.946zM19.81 34.15l-.274.069c-.046.003-.092.023-.137.026.403-1.592.649-3.202.94-4.458.126-.557.377-1.122.727-1.415.853.385 1.303 1.176 1.373 2.06.117 1.505-.817 3.247-2.629 3.718zM29 32.08c.216-.016.38.08.398.312.091 1.163-.374 3.353-1.903 3.474l-.139.01c.236-1.75 1.042-3.748 1.644-3.796zm4.618.259a.982.982 0 01.008-.296.936.936 0 01.455-.147c.525-.04 1.124.27 1.39.702.442-.315.69-.71.671-.957-.039-.497-.503-.679-1.12-.63-1.236.098-3.05 1.13-2.948 2.433.089 1.132 2.35 2.435 2.43 3.46.07.882-.602 1.42-1.297 1.475-.695.055-1.41-.357-1.486-1.319-.045-.572.23-1.219.883-1.613a.84.84 0 00-.722-.303c-.531.043-.897.364-1.096.809h-.005c-.313.758-1.52 2.426-2.415 2.496-.679.054-.988-.515-1.052-1.336a5.965 5.965 0 01.01-.875c.17.003.356.004.526-.01 1.992-.158 3.115-2.072 3.008-3.436-.065-.823-.58-1.452-1.63-1.37-1.744.138-4.184 2.501-3.945 5.54.017.214.085.49.13.675-.175.384-.236.621-.61.905-.633.48-1.27-1.707-1.422-2.07-.616-1.511-1.014-2.228-2.004-2.384 2.082-.773 3.19-2.5 3.072-4.003-.118-1.504-1.46-2.77-4.255-2.549-2.763.218-5.92 2.355-5.664 5.612.072.93.407 2.485 1.565 2.393.293-.023.558-.215.683-.6-1.028-.23-1.418-1.313-1.49-2.243-.2-2.527 2.187-4.386 4.24-4.549a4.24 4.24 0 01.653.011c-.738.293-1.58.844-1.911 1.774-.97 2.79-1.355 8.99-3.377 9.816a1.81 1.81 0 01-1.2.326 1.866 1.866 0 01-.434-.1c.441.28 1.025.368 1.614.321 2.408-.19 3.647-2.816 4.419-5.654l.173.034c1.496.256 1.582 1.95 1.819 2.789.34 1.159 1.002 2.478 2.315 2.375.75-.06 1.585-.754 1.999-1.69.437.864 1.256 1.245 2.107 1.177a2.863 2.863 0 001.724-.79c.44-.401.886-.914 1.202-1.38.17 1.397 1.313 1.913 2.53 1.817 1.528-.121 3.152-1.201 3.035-2.69-.124-1.581-2.472-2.596-2.578-3.946zm5.524 5.477c-.354.027-.54-.363-.588-.968-.147-1.876.943-5.8 1.823-5.87.355-.028.541.362.588.967.147 1.876-.942 5.8-1.823 5.871zm8.798-7.858c-.772.06-1.34.73-1.73 1.51.004-.14.01-.266 0-.39-.047-.605-.608-.825-1.102-.787-1.087.086-2.078 1.257-2.358 2.018-.27-1.163-1.047-1.998-2.417-1.89-2.485.196-3.91 3.228-3.73 5.507.115 1.472.905 2.642 2.51 2.516 2.432-.192 3.848-3.095 3.741-5.355h.001c.191-.53.856-1.594 1.362-1.68.042.527-.92 4.707-.836 5.776.046.59.369.752.77.72.37-.03.913-.244 1.18-.406.142-1.759.85-6.792 2.597-7.102-.376.358-.683.804-.633 1.44.048.604.535.877 1.045.837.602-.048 1.231-.534 1.163-1.403-.072-.914-.838-1.369-1.563-1.311zm19.083-2.295c-.205 1.76-.917 2.38-1.501 2.43-.642.055-1.215-.458-1.25-.868-.132-1.584 1.17-2.522 2.958-3.293l-.207 1.73zm-14.336-5.805a6.88 6.88 0 00-.093.984c-.486.867-1.074 1.567-1.746 1.624-.73.062-1.72-.179-1.868-1.939-.336-3.988 1.024-8.8 3.213-8.985a2.18 2.18 0 011.475.406l-.98 7.91zm26.228-7.139c-.81 2.254-1.282 6.053-7.14 8.257L73.408 9.9l-4.204.356-1.393 11.047c-.706.71-1.453 1.275-2.094 1.33-1.168.099-1.5-.345-1.554-.99-.022-.265.009-.592.04-.92l1.264-10.15-4.205.358-1.263 10.15a7.41 7.41 0 00-.05 1.497c-.527.453-1.055.79-1.545.832-1.167.1-1.5-.345-1.553-.99-.023-.264.009-.592.04-.92l1.263-10.149-4.204.358-.111.777c-.563-.395-1.317-.626-2.018-.567-5.84.495-7.141 6.69-6.717 11.734.146 1.731 1.131 3.656 3.934 3.418 1.78-.152 2.993-1.465 3.767-2.742.51 1.493 1.853 2.087 3.751 1.926 1.15-.097 2.478-1.213 3.668-2.481.553 1.328 1.856 1.855 3.644 1.704 1.168-.1 2.513-1.247 3.725-2.562l-.24 2.03c-2.705 1.056-4.88 2.127-4.653 4.825.16 1.905 1.931 3.025 3.712 2.875 1.927-.164 4.313-1.164 4.837-5.432l.346-2.865c4.825-1.528 7.173-5.424 7.397-7.303l-.078-2.328zM9.61 16.604l-1.494.127c-3.25.277-4.87-.644-4.96-1.695-.1-1.2 1.599-2.025 4.513-2.272 1.009-.086 2.26.034 3.562.302a77.675 77.675 0 00-1.621 3.538zm4.546-2.766a46.954 46.954 0 014.585 1.727c-1.821.268-3.57.492-5.36.682l.775-2.409zM21.058 2.86l-1.555 12.376-.392-.193a90.289 90.289 0 00-4.648-2.025c1.748-4.721 4.04-8.77 6.595-10.158zM19.334 16.8l-1.123 9.05a8.47 8.47 0 011.818-.36c1.387-.124 2.648.075 3.489.487L24.8 15.8l2.149-.328-1.112 8.692a7.442 7.442 0 00-.05 1.511c.185 2.2 1.671 3.078 3.92 2.887 1.226-.104 2.703-1.411 3.97-2.788.432 1.645 1.781 2.3 3.766 2.131 5.899-.5 7.53-8.731 7.145-13.307-.128-1.524-.836-2.587-2.091-2.48-.964.08-1.596.962-1.544 1.579.07.82.518 1.609 1.365 1.537.175-.015.433-.095.603-.17.269 3.197-1.147 9.786-4.008 10.029-.847.071-1.142-.288-1.189-.845-.027-.323.002-.68.054-1.098l1.264-10.149-4.205.357-1.263 10.15a4.347 4.347 0 00-.062 1.01c-.651.645-1.344 1.148-1.957 1.2-1.169.099-1.5-.346-1.554-.991-.022-.264.01-.592.04-.92l1.287-10.206-1.36.15c-.796.083-4.087.547-4.964.69L26.754.334c-.929-.297-2.14-.384-3.037-.308-4.371.371-8.727 5.843-11.998 12.129a16.872 16.872 0 00-5.531-.438c-1.792.153-6.43.925-6.178 3.927.135 1.613 2.27 3.284 7.015 2.88l1.905-.161c-1.791 4.65-2.776 9.042-2.565 11.556.335 3.977 2.77 3.846 5.36 3.777-.065-.334-.538-.143-.7-2.057-.265-3.151.448-8.542 1.887-13.803 2.12-.293 4.274-.627 6.422-1.036z" fill="#3cc0c8"></path>
</svg>